<svg width="366" height="329" viewBox="0 0 366 329" fill="none" xmlns="http://www.w3.org/2000/svg">
<path d="M306.069 171.427H7.5C3.357 171.427 0 168.069 0 163.927C0 159.785 3.357 156.427 7.5 156.427H304.619C305.088 156.335 305.573 156.287 306.069 156.287C330.539 156.287 350.447 136.379 350.447 111.909C350.447 87.439 330.539 67.53 306.069 67.53C281.599 67.53 261.691 87.438 261.691 111.908C261.691 116.05 258.334 119.408 254.191 119.408C250.048 119.408 246.691 116.05 246.691 111.908C246.691 79.167 273.328 52.53 306.069 52.53C338.81 52.53 365.447 79.167 365.447 111.908C365.447 144.132 339.646 170.443 307.618 171.266C307.118 171.372 306.601 171.427 306.069 171.427Z" fill="white"/>
<path d="M152.283 119.479H7.5C3.357 119.479 0 116.121 0 111.979C0 107.837 3.357 104.479 7.5 104.479H150.833C151.302 104.387 151.787 104.339 152.283 104.339C176.753 104.339 196.661 84.431 196.661 59.961C196.661 35.491 176.753 15.583 152.283 15.583C127.812 15.583 107.904 35.491 107.904 59.961C107.904 64.103 104.547 67.461 100.404 67.461C96.261 67.461 92.904 64.103 92.904 59.961C92.904 27.22 119.542 0.583008 152.283 0.583008C185.024 0.583008 211.661 27.22 211.661 59.961C211.661 92.185 185.86 118.496 153.832 119.319C153.332 119.423 152.814 119.479 152.283 119.479Z" fill="white"/>
<path d="M244.186 328.866C211.445 328.866 184.807 302.229 184.807 269.488C184.807 265.346 188.164 261.988 192.307 261.988C196.45 261.988 199.807 265.346 199.807 269.488C199.807 293.958 219.715 313.866 244.186 313.866C268.656 313.866 288.564 293.958 288.564 269.488C288.564 245.018 268.656 225.11 244.186 225.11H7.5C3.357 225.11 0 221.752 0 217.61C0 213.468 3.357 210.11 7.5 210.11H244.186C276.927 210.11 303.564 236.747 303.564 269.488C303.564 302.229 276.927 328.866 244.186 328.866Z" fill="white"/>
</svg>
