<svg width="32" height="27" viewBox="0 0 32 27" fill="none" xmlns="http://www.w3.org/2000/svg">
<path d="M0 13.571C0.001 15.273 1.383 16.652 3.085 16.654L20.613 16.652L15.875 21.391C14.592 22.675 14.526 24.692 15.73 25.898C16.935 27.099 18.952 27.036 20.237 25.752L30.133 15.854C31.42 14.571 31.485 12.553 30.279 11.348C30.246 11.319 30.211 11.297 30.179 11.268C30.138 11.225 30.109 11.174 30.066 11.129L20.302 1.367C19.034 0.101004 17.032 0.0510041 15.828 1.256C14.623 2.461 14.675 4.464 15.939 5.732L20.694 10.486H3.085C1.381 10.485 0 11.865 0 13.571Z" fill="white"/>
</svg>
